<svg width="24" height="25" viewBox="0 0 24 25" fill="none" xmlns="http://www.w3.org/2000/svg">
<path d="M16.0608 24.125V15.1272H19.0742L19.525 11.6294H16.0608V9.39742C16.0608 8.38475 16.3423 7.69371 17.7942 7.69371H19.6464V4.56529C18.7497 4.47015 17.8485 4.42402 16.9468 4.42708C14.277 4.42708 12.4493 6.05717 12.4493 9.05125V11.6294H9.42934V15.1272H12.4493V24.125H1.33317C0.990599 24.125 0.662059 23.9889 0.419824 23.7467C0.17759 23.5044 0.0415039 23.1759 0.0415039 22.8333V2.16667C0.0415039 1.8241 0.17759 1.49555 0.419824 1.25332C0.662059 1.01109 0.990599 0.875 1.33317 0.875H21.9998C22.3424 0.875 22.6709 1.01109 22.9132 1.25332C23.1554 1.49555 23.2915 1.8241 23.2915 2.16667V22.8333C23.2915 23.1759 23.1554 23.5044 22.9132 23.7467C22.6709 23.9889 22.3424 24.125 21.9998 24.125H16.0608Z" fill="white"/>
</svg>
