<svg width="27" height="27" viewBox="0 0 27 27" fill="none" xmlns="http://www.w3.org/2000/svg">
<path d="M13.4999 0.583374C17.0094 0.583374 17.4473 0.596291 18.8242 0.660874C20.1998 0.725457 21.1363 0.941166 21.9603 1.2615C22.8128 1.58958 23.531 2.03392 24.2492 2.75079C24.906 3.39649 25.4142 4.17755 25.7385 5.03962C26.0575 5.86242 26.2745 6.80017 26.3391 8.17579C26.3998 9.55271 26.4166 9.99058 26.4166 13.5C26.4166 17.0095 26.4037 17.4474 26.3391 18.8243C26.2745 20.1999 26.0575 21.1364 25.7385 21.9605C25.4151 22.823 24.9068 23.6043 24.2492 24.2493C23.6033 24.9059 22.8223 25.4141 21.9603 25.7386C21.1375 26.0576 20.1998 26.2746 18.8242 26.3392C17.4473 26.3999 17.0094 26.4167 13.4999 26.4167C9.99046 26.4167 9.55259 26.4038 8.17567 26.3392C6.80004 26.2746 5.86359 26.0576 5.0395 25.7386C4.17709 25.415 3.39589 24.9067 2.75067 24.2493C2.09374 23.6037 1.5855 22.8226 1.26138 21.9605C0.941044 21.1377 0.725335 20.1999 0.660752 18.8243C0.600044 17.4474 0.583252 17.0095 0.583252 13.5C0.583252 9.99058 0.596169 9.55271 0.660752 8.17579C0.725335 6.79887 0.941044 5.86371 1.26138 5.03962C1.5846 4.17702 2.09296 3.39575 2.75067 2.75079C3.39608 2.09363 4.17722 1.58536 5.0395 1.2615C5.86359 0.941166 6.79875 0.725457 8.17567 0.660874C9.55259 0.600166 9.99046 0.583374 13.4999 0.583374ZM13.4999 7.04171C11.7871 7.04171 10.1444 7.72214 8.93319 8.93331C7.72202 10.1445 7.04159 11.7872 7.04159 13.5C7.04159 15.2129 7.72202 16.8556 8.93319 18.0668C10.1444 19.2779 11.7871 19.9584 13.4999 19.9584C15.2128 19.9584 16.8555 19.2779 18.0667 18.0668C19.2778 16.8556 19.9583 15.2129 19.9583 13.5C19.9583 11.7872 19.2778 10.1445 18.0667 8.93331C16.8555 7.72214 15.2128 7.04171 13.4999 7.04171ZM21.8958 6.71879C21.8958 6.29058 21.7256 5.8799 21.4229 5.57711C21.1201 5.27431 20.7094 5.10421 20.2812 5.10421C19.853 5.10421 19.4423 5.27431 19.1395 5.57711C18.8367 5.8799 18.6666 6.29058 18.6666 6.71879C18.6666 7.14701 18.8367 7.55768 19.1395 7.86047C19.4423 8.16327 19.853 8.33337 20.2812 8.33337C20.7094 8.33337 21.1201 8.16327 21.4229 7.86047C21.7256 7.55768 21.8958 7.14701 21.8958 6.71879ZM13.4999 9.62504C14.5276 9.62504 15.5133 10.0333 16.24 10.76C16.9667 11.4867 17.3749 12.4723 17.3749 13.5C17.3749 14.5278 16.9667 15.5134 16.24 16.2401C15.5133 16.9668 14.5276 17.375 13.4999 17.375C12.4722 17.375 11.4866 16.9668 10.7599 16.2401C10.0332 15.5134 9.62492 14.5278 9.62492 13.5C9.62492 12.4723 10.0332 11.4867 10.7599 10.76C11.4866 10.0333 12.4722 9.62504 13.4999 9.62504Z" fill="white"/>
</svg>
