<svg width="27" height="27" viewBox="0 0 27 27" fill="none" xmlns="http://www.w3.org/2000/svg">
<path d="M13.5834 26.4167C6.44954 26.4167 0.666748 20.6339 0.666748 13.5C0.666748 6.36617 6.44954 0.583374 13.5834 0.583374C20.7173 0.583374 26.5001 6.36617 26.5001 13.5C26.5001 20.6339 20.7173 26.4167 13.5834 26.4167ZM9.56633 15.0113L9.58312 15.0022L10.7069 18.7093C10.8515 19.111 11.0505 19.1834 11.292 19.1498C11.5348 19.1175 11.6627 18.987 11.8216 18.8346L13.3561 17.3518L16.6498 19.7905C17.2517 20.1224 17.6845 19.9506 17.8343 19.2325L19.9746 9.12904C20.211 8.18871 19.7976 7.81154 19.0678 8.11121L6.49604 12.9679C5.63837 13.3115 5.64354 13.792 6.34104 14.0051L9.56633 15.0126V15.0113Z" fill="white"/>
</svg>
